Coordinates
version=1
nRows=14
nColumns=24
inDegrees=yes

Units are S.I. units (second, meters, Newtons, ...)
Angles are in degrees.

endheader
time	pelvis_tilt	pelvis_list	pelvis_rotation	pelvis_tx	pelvis_ty	pelvis_tz	hip_flexion_r	hip_adduction_r	hip_rotation_r	knee_angle_r	ankle_angle_r	subtalar_angle_r	mtp_angle_r	hip_flexion_l	hip_adduction_l	hip_rotation_l	knee_angle_l	ankle_angle_l	subtalar_angle_l	mtp_angle_l	lumbar_extension	lumbar_bending	lumbar_rotation
      1.28500000	     24.39035756	     -2.07055168	      4.73593719	     -0.56978720	      0.84506584	     -0.00552084	    -41.46748264	      9.14028381	    -15.84276269	     -6.03375810	     27.83796628	     21.01572849	     39.44018295	     -5.68359098	     -0.10755255	    -17.33114885	     -3.22424329	     18.78132553	     14.19538500	     48.38434514	    -40.18584792	      5.19932489	     -6.98105214
      1.29000000	     24.44571137	     -2.14715604	      4.65314156	     -0.56385678	      0.84453322	     -0.00551946	    -41.72351151	      9.07287461	    -15.62965903	     -6.63635824	     27.83034266	     21.06240212	     39.50111899	     -5.77841018	     -0.14400160	    -17.33504051	     -3.69822997	     18.42788470	     14.18682764	     48.37278354	    -40.20300199	      5.18916846	     -6.92685112
      1.29500000	     24.51115392	     -2.20984811	      4.55375189	     -0.55789109	      0.84406827	     -0.00546287	    -41.95314206	      8.97340602	    -15.41936168	     -7.31940152	     27.72711960	     21.12590635	     40.64231291	     -5.87678866	     -0.18342365	    -17.34217691	     -4.27781307	     18.00294473	     14.12712234	     48.63682013	    -40.23082882	      5.14879260	     -6.89746268
      1.30000000	     24.58087596	     -2.25453624	      4.45207626	     -0.55192900	      0.84366041	     -0.00538926	    -42.13780919	      8.84896890	    -15.22198549	     -8.12550890	     27.72014291	     21.13256629	     40.73655596	     -5.95109195	     -0.22254191	    -17.29981079	     -5.00104687	     17.58658274	     13.97279501	     48.62347770	    -40.26527442	      5.08599637	     -6.84263360
      1.30500000	     24.60715424	     -2.29643783	      4.41686737	     -0.54603430	      0.84323462	     -0.00541390	    -42.20446460	      8.74488717	    -15.13106609	     -9.07003038	     27.70916345	     21.26347043	     41.34088187	     -5.94530188	     -0.26938139	    -17.01329146	     -5.81244577	     17.09120582	     13.46426844	     48.70844500	    -40.26004410	      5.05660952	     -6.87908074
      1.31000000	     24.64711414	     -2.30270385	      4.34990925	     -0.54006444	      0.84291750	     -0.00539528	    -42.23891437	      8.57924121	    -15.07682523	    -10.13182164	     27.57302836	     21.34220968	     42.28111505	     -5.96109715	     -0.28786680	    -16.76239433	     -6.67579379	     16.55625868	     12.92292119	     48.88809949	    -40.26488932	      4.97176222	     -6.89534220
      1.31500000	     24.70372171	     -2.29447866	      4.28752394	     -0.53411319	      0.84267637	     -0.00536483	    -42.24001393	      8.39577015	    -15.03545689	    -11.30181960	     27.42356325	     21.40991186	     43.29437100	     -5.96942787	     -0.31063644	    -16.48854012	     -7.63195985	     16.01062206	     12.34046668	     49.07557582	    -40.29416688	      4.87289700	     -6.91451567
      1.32000000	     24.80390766	     -2.24981505	      4.18514360	     -0.52813335	      0.84258690	     -0.00528199	    -42.25177763	      8.15001375	    -14.99229766	    -12.53877777	     27.20145285	     21.39607640	     45.09905600	     -6.04865151	     -0.29822346	    -16.21115032	     -8.58095128	     15.35727899	     11.64196223	     49.42669041	    -40.37181465	      4.71489032	     -6.92356664
      1.32500000	     24.80227028	     -2.23236639	      4.17729950	     -0.52219572	      0.84238317	     -0.00531630	    -42.04093228	      7.95932501	    -15.08099974	    -14.03683740	     27.01796650	     21.53107632	     45.64918473	     -5.92256633	     -0.34848697	    -15.82189636	     -9.75038713	     14.97988826	     11.07472267	     49.45461698	    -40.34215106	      4.63273279	     -6.98370962
      1.33000000	     24.88308650	     -2.13871545	      4.10890037	     -0.51620905	      0.84239113	     -0.00531777	    -41.88454037	      7.65388331	    -15.20763983	    -15.59809009	     26.68533576	     21.54092649	     47.82060977	     -5.97534142	     -0.29128520	    -15.39859124	    -10.75531797	     14.39868329	     10.19311766	     49.57384421	    -40.40235520	      4.44847834	     -7.03177950
      1.33500000	     24.88281085	     -2.05705122	      4.09910716	     -0.51023908	      0.84232728	     -0.00541321	    -41.56060933	      7.37050788	    -15.41781843	    -17.32846163	     26.33843561	     21.62740782	     49.17673604	     -5.87261698	     -0.26577231	    -14.90901555	    -11.92858556	     14.01204013	      9.40816824	     49.52207831	    -40.37831457	      4.31115229	     -7.13317054
      1.34000000	     24.85531929	     -1.96628570	      4.13774165	     -0.50424122	      0.84226479	     -0.00558633	    -41.14452378	      7.08646550	    -15.71173709	    -19.19214358	     25.85611439	     21.78510693	     50.21322648	     -5.73296563	     -0.23597161	    -14.35069683	    -13.13658958	     13.82392590	      8.70227091	     49.41584587	    -40.32156441	      4.19252362	     -7.27846775
      1.34500000	     24.89867994	     -1.82070667	      4.08644970	     -0.49818960	      0.84237796	     -0.00564915	    -40.75830594	      6.68614620	    -15.96962052	    -21.12951440	     25.24265094	     21.69394659	     53.28752690	     -5.74536254	     -0.13588824	    -13.93325898	    -14.23131242	     13.59096499	      8.07349995	     49.10089301	    -40.34250180	      3.97240170	     -7.35475596
      1.35000000	     24.89367079	     -1.63903447	      4.08882887	     -0.49218155	      0.84246404	     -0.00588640	    -40.22812770	      6.24286353	    -16.36979420	    -23.27692462	     24.59531001	     21.70909570	     54.89842641	     -5.74393735	      0.03499083	    -13.31937164	    -15.21751670	     13.42224302	      7.29113210	     48.74548332	    -40.31912626	      3.76241285	     -7.49323102
